{
	"asset":{
		"generator":"Khronos glTF Blender I/O v4.3.47",
		"version":"2.0"
	},
	"extensionsUsed":[
		"KHR_materials_specular",
		"KHR_materials_ior"
	],
	"scene":0,
	"scenes":[
		{
			"name":"Scene",
			"nodes":[
				0,
				1
			]
		}
	],
	"nodes":[
		{
			"mesh":0,
			"name":"Object_2"
		},
		{
			"mesh":1,
			"name":"Object_2.001",
			"scale":[
				0.9900000095367432,
				0.9900000095367432,
				0.9900000095367432
			]
		}
	],
	"materials":[
		{
			"alphaMode":"BLEND",
			"doubleSided":true,
			"extensions":{
				"KHR_materials_specular":{
					"specularFactor":0,
					"specularColorFactor":[
						0.0,
						0.0,
						0.0
					]
				},
				"KHR_materials_ior":{
					"ior":1
				}
			},
			"name":"moon",
			"pbrMetallicRoughness":{
				"baseColorFactor":[
					1,
					1,
					1,
					0.6929134130477905
				],
				"baseColorTexture":{
					"index":0
				},
				"metallicFactor":0,
				"roughnessFactor":0
			}
		},
		{
			"doubleSided":true,
			"extensions":{
				"KHR_materials_specular":{
					"specularFactor":0,
					"specularColorFactor":[
						0.0,
						0.0,
						0.0
					]
				},
				"KHR_materials_ior":{
					"ior":1
				}
			},
			"name":"moon.002",
			"pbrMetallicRoughness":{
				"baseColorTexture":{
					"index":1
				},
				"metallicFactor":0,
				"roughnessFactor":0
			}
		}
	],
	"meshes":[
		{
			"name":"Object_0",
			"primitives":[
				{
					"attributes":{
						"POSITION":0,
						"NORMAL":1,
						"TEXCOORD_0":2
					},
					"indices":3,
					"material":0
				}
			]
		},
		{
			"name":"Object_0.002",
			"primitives":[
				{
					"attributes":{
						"POSITION":4,
						"NORMAL":5,
						"TEXCOORD_0":6
					},
					"indices":3,
					"material":1
				}
			]
		}
	],
	"textures":[
		{
			"sampler":0,
			"source":0
		},
		{
			"sampler":0,
			"source":0
		}
	],
	"images":[
		{
			"mimeType":"image/jpeg",
			"name":"Image_0",
			"uri":"Image_0.jpg"
		}
	],
	"accessors":[
		{
			"bufferView":0,
			"componentType":5126,
			"count":16422,
			"max":[
				1.0002766847610474,
				0.9950039982795715,
				1.0012816190719604
			],
			"min":[
				-0.9997255206108093,
				-1.0049970149993896,
				-0.9987186193466187
			],
			"type":"VEC3"
		},
		{
			"bufferView":1,
			"componentType":5126,
			"count":16422,
			"type":"VEC3"
		},
		{
			"bufferView":2,
			"componentType":5126,
			"count":16422,
			"type":"VEC2"
		},
		{
			"bufferView":3,
			"componentType":5123,
			"count":97536,
			"type":"SCALAR"
		},
		{
			"bufferView":4,
			"componentType":5126,
			"count":16422,
			"max":[
				1.0002766847610474,
				0.9950039982795715,
				1.0012816190719604
			],
			"min":[
				-0.9997255206108093,
				-1.0049970149993896,
				-0.9987186193466187
			],
			"type":"VEC3"
		},
		{
			"bufferView":5,
			"componentType":5126,
			"count":16422,
			"type":"VEC3"
		},
		{
			"bufferView":6,
			"componentType":5126,
			"count":16422,
			"type":"VEC2"
		}
	],
	"bufferViews":[
		{
			"buffer":0,
			"byteLength":197064,
			"byteOffset":0,
			"target":34962
		},
		{
			"buffer":0,
			"byteLength":197064,
			"byteOffset":197064,
			"target":34962
		},
		{
			"buffer":0,
			"byteLength":131376,
			"byteOffset":394128,
			"target":34962
		},
		{
			"buffer":0,
			"byteLength":195072,
			"byteOffset":525504,
			"target":34963
		},
		{
			"buffer":0,
			"byteLength":197064,
			"byteOffset":720576,
			"target":34962
		},
		{
			"buffer":0,
			"byteLength":197064,
			"byteOffset":917640,
			"target":34962
		},
		{
			"buffer":0,
			"byteLength":131376,
			"byteOffset":1114704,
			"target":34962
		}
	],
	"samplers":[
		{
			"magFilter":9729,
			"minFilter":9987
		}
	],
	"buffers":[
		{
			"byteLength":1246080,
			"uri":"sun.bin"
		}
	]
}
