{
	"asset":{
		"version":"2.0",
		"generator":"Maxon Cinema 4D 2024.1.0 (#200000219)"
	},
	"scenes":[{
		"nodes":[0]
	}],
	"nodes":[{
		"name":"Null",
		"children":[1,
		2]
	},
	{
		"name":"Cylinder032",
		"translation":[0.010635784827172757,
		-0.09672907739877701,
		-0.01935201697051525],
		"rotation":[-0.6830127239227295,
		0.1830127090215683,
		0.1830127090215683,
		0.6830127239227295],
		"scale":[1.0,
		1.0,
		1.0],
		"children":[3,
		4]
	},
	{
		"name":"Cylinder033",
		"mesh":0,
		"translation":[-0.010635784827172757,
		0.09672907739877701,
		0.01935201697051525],
		"rotation":[-0.6830127239227295,
		0.1830127090215683,
		0.1830127090215683,
		0.6830127239227295],
		"scale":[1.0327589511871338,
		1.0327589511871338,
		0.23254400491714478]
	},
	{
		"name":"Cylinder032-Mat._red",
		"mesh":1
	},
	{
		"name":"Cylinder032-Mat",
		"mesh":2
	}],
	"meshes":[{
		"name":"Cylinder033",
		"primitives":[{
			"attributes":{
				"POSITION":1,
				"NORMAL":2,
				"TEXCOORD_0":3
			},
			"indices":0,
			"material":0
		}]
	},
	{
		"name":"Cylinder032-Mat._red",
		"primitives":[{
			"attributes":{
				"POSITION":5,
				"NORMAL":6,
				"TEXCOORD_0":7
			},
			"indices":4,
			"material":0
		}]
	},
	{
		"name":"Cylinder032-Mat",
		"primitives":[{
			"attributes":{
				"POSITION":9,
				"NORMAL":10,
				"TEXCOORD_0":11
			},
			"indices":8,
			"material":1
		}]
	}],
	"accessors":[{
		"bufferView":0,
		"type":"SCALAR",
		"componentType":5123,
		"count":792,
		"byteOffset":0,
		"min":[0],
		"max":[791]
	},
	{
		"bufferView":1,
		"type":"VEC3",
		"componentType":5126,
		"count":792,
		"byteOffset":0,
		"min":[-3.2766802310943605,
		-2.837688446044922,
		0.0],
		"max":[3.2766802310943605,
		2.837688446044922,
		0.4504767656326294]
	},
	{
		"bufferView":1,
		"type":"VEC3",
		"componentType":5126,
		"count":792,
		"byteOffset":12,
		"min":[-0.9891250729560852,
		-1.0,
		-1.0],
		"max":[0.9891250729560852,
		1.0,
		1.0]
	},
	{
		"bufferView":1,
		"type":"VEC2",
		"componentType":5126,
		"count":792,
		"byteOffset":24,
		"min":[-5.444857120513916,
		-100000.0],
		"max":[100000.0,
		5.979693412780762]
	},
	{
		"bufferView":2,
		"type":"SCALAR",
		"componentType":5123,
		"count":252,
		"byteOffset":0,
		"min":[0],
		"max":[251]
	},
	{
		"bufferView":3,
		"type":"VEC3",
		"componentType":5126,
		"count":252,
		"byteOffset":0,
		"min":[-3.316878080368042,
		-2.8725011348724367,
		0.06018907576799393],
		"max":[3.316877841949463,
		2.872500419616699,
		0.3742999732494354]
	},
	{
		"bufferView":3,
		"type":"VEC3",
		"componentType":5126,
		"count":252,
		"byteOffset":12,
		"min":[-0.9798040390014648,
		-1.0,
		-1.0],
		"max":[0.9798040390014648,
		1.0,
		1.0]
	},
	{
		"bufferView":3,
		"type":"VEC2",
		"componentType":5126,
		"count":252,
		"byteOffset":24,
		"min":[-0.08333331346511841,
		0.16910260915756226],
		"max":[0.9166666865348816,
		0.8496865034103394]
	},
	{
		"bufferView":4,
		"type":"SCALAR",
		"componentType":5123,
		"count":744,
		"byteOffset":0,
		"min":[0],
		"max":[743]
	},
	{
		"bufferView":5,
		"type":"VEC3",
		"componentType":5126,
		"count":744,
		"byteOffset":0,
		"min":[-3.291875123977661,
		-2.8508472442626955,
		0.0],
		"max":[3.291874647140503,
		2.850847005844116,
		0.4504767656326294]
	},
	{
		"bufferView":5,
		"type":"VEC3",
		"componentType":5126,
		"count":744,
		"byteOffset":12,
		"min":[-0.9891250729560852,
		-1.0,
		-0.9996652007102966],
		"max":[0.9891250729560852,
		1.0,
		1.0]
	},
	{
		"bufferView":5,
		"type":"VEC2",
		"componentType":5126,
		"count":744,
		"byteOffset":24,
		"min":[-5.444857120513916,
		-100000.0],
		"max":[100000.0,
		5.979693412780762]
	}],
	"bufferViews":[{
		"buffer":0,
		"byteOffset":0,
		"byteLength":1584,
		"target":34963
	},
	{
		"buffer":0,
		"byteOffset":1584,
		"byteLength":25344,
		"target":34962,
		"byteStride":32
	},
	{
		"buffer":1,
		"byteOffset":0,
		"byteLength":504,
		"target":34963
	},
	{
		"buffer":1,
		"byteOffset":504,
		"byteLength":8064,
		"target":34962,
		"byteStride":32
	},
	{
		"buffer":2,
		"byteOffset":0,
		"byteLength":1488,
		"target":34963
	},
	{
		"buffer":2,
		"byteOffset":1488,
		"byteLength":23808,
		"target":34962,
		"byteStride":32
	}],
	"buffers":[{
		"uri":"data:application/octet-stream;base64,",
		"byteLength":26928
	},
	{
		"uri":"data:application/octet-stream;base64,",
		"byteLength":8568
	},
	{
		"uri":"data:application/octet-stream;base64,",
		"byteLength":25296
	}],
	"materials":[{
		"pbrMetallicRoughness":{
			"baseColorFactor":[1.0,
			1.0,
			1.0,
			1.0],
			"metallicFactor":1.0,
			"roughnessFactor":1.0
		},
		"emissiveFactor":[1.0,
		0.5741007194244605,
		0.5741007194244605],
		"alphaMode":"OPAQUE",
		"doubleSided":false,
		"name":"Mat._red"
	},
	{
		"pbrMetallicRoughness":{
			"baseColorFactor":[0.37254901960784317,
			0.37254901960784317,
			0.37254901960784317,
			1.0],
			"metallicFactor":1.0,
			"roughnessFactor":0.22
		},
		"emissiveFactor":[0.0,
		0.0,
		0.0],
		"alphaMode":"OPAQUE",
		"doubleSided":false,
		"name":"Mat"
	}]
}